<?xml version="1.0" standalone="no"?>
<!DOCTYPE svg PUBLIC "-//W3C//DTD SVG 1.1//EN" "http://www.w3.org/Graphics/SVG/1.1/DTD/svg11.dtd" >
<svg>
<metadata>
Created by FontForge 20120731 at Fri Nov 17 23:14:25 2017
 By www-data
Typeface (c) (Rocco). &#60;2009&#62;. All Rights Reserved
</metadata>
<defs>
<font id="KylieXFont" horiz-adv-x="569" >
  <font-face 
    font-family="Kylie X Font"
    font-weight="400"
    font-stretch="normal"
    units-per-em="2048"
    panose-1="2 0 0 0 0 0 0 0 0 0"
    ascent="1638"
    descent="-410"
    x-height="885"
    cap-height="1900"
    bbox="-216.477 -1169.72 2938 2399.47"
    underline-thickness="150"
    underline-position="-142"
    unicode-range="U+0020-007A"
  />
<missing-glyph horiz-adv-x="1536" 
 />
    <glyph glyph-name=".notdef" horiz-adv-x="1536" 
 />
    <glyph glyph-name=".null" horiz-adv-x="0" 
 />
    <glyph glyph-name="nonmarkingreturn" 
 />
    <glyph glyph-name="space" unicode=" " 
 />
    <glyph glyph-name="space" unicode="&#xa0;" 
 />
    <glyph glyph-name="A" unicode="A" horiz-adv-x="1067" 
d="M265 522q97 97 268 250q23 31 226 205l17 18v9l-23 104h-6q-213 -189 -369.5 -354t-193.5 -268l-35 -98q41 44 116 134zM884 846v-3h3l8 9v6zM388 599q54 39 258 176l154 98v3q-10 64 -18 57q-62 -42 -394 -334zM723 1257q-98 -106 -187 -202q-151 -161 -178 -203.5
t-52 -112.5v-6q261 277 420 429q15 9 15 21q-6 74 -18 74zM411 1004v-3l309 345l15 21l-15 96q-12 151 -26.5 164.5t-31.5 1t-88 -189.5q-98 -220 -163 -435zM122 320l-45 -125l-71 -182h-3l-3 3l33 134q29 94 44 152l15 56q152 561 268 956q104 336 167 497q72 89 128 89
h14q54 -13 74 -43t-1.5 -64t-21.5 -51l54 -321h2q43 42 60 42h9l9 -9v-15q0 -20 -66 -110q9 -90 18 -90l24 18q40 12 39 -18v-6l-54 -65l21 -119h3q77 80 101 80h9q6 0 6 -9q0 -23 -104 -125v-6q10 -77 21 -77q121 62 178 80h6q15 -9 12 -24q-11 -48 -50.5 -84t-116.5 -100
v-9l3 -21l9 -68l6 -60l45 -312q62 -498 62 -786l3 -15l-3 -3l3 -21v-44l3 -18q-3 -27 -9 -27l-6 27q-9 142 -16 225.5t-37 369.5l-33 226l-18 101l-29 173l-36 164q-29 128 -42 128q-323 -180 -485 -283q-72 -60 -100.5 -82t-42 -40t-56.5 -89z" />
    <glyph glyph-name="B" unicode="B" horiz-adv-x="950" 
d="M1313 1900q62 1 65.5 -33.5t-31 -88t-125 -152t-378.5 -332.5l-437 -296l516 403q147 133 200.5 193t100 132.5t33 77.5t-77.5 -13.5t-247 -104.5t-271 -185q-23 -23 -167 -249q-74 -153 -74 -176l-44 -78v-31l9 -9h4q298 140 442 140q52 0 57 -61q0 -29 -76 -155
q-162 -214 -612 -675l395 468q167 201 210 292v4q0 27 -39 44h-57q-146 -32 -175 -57q-225 -96 -250 -152q-15 -45 -28.5 -97t-154.5 -573v-35q-55 -99 -81 -101q-13 0 -11 37q10 13 13 73q18 24 131 476l26 153q-9 48 -8.5 58.5t21.5 48.5t57 152v13q-14 80 -43 224.5
t23.5 227t163.5 135.5q57 22 224 17q105 39 262 123q237 121 434 162z" />
    <glyph glyph-name="C" unicode="C" horiz-adv-x="1364" 
d="M805.5 1748q-76.5 -34 -111 -56.5t-77.5 -53t-73 -54t-47 -38t-71 -62.5l-83 -93l-43 -61l-63 -89l-76 -134q-62 -124 -76 -157t-34 -99.5t-27 -132.5l3 -62q7 -73 23.5 -113.5t31.5 -65.5t75 -94q9 31 21 79q41 143 120 290.5t171.5 285.5t203.5 270.5t200 218.5
t128 118t60 45l72 55q-12 25 -40 44t-67.5 19t-91.5 -13t-128.5 -47zM182 361q118 -58 153 -71.5t58 -13.5l7 26l-2 9l2 35l11 78q26 99 101 258l157 271q51 82 95 137l63 99l61 83q12 23 63 82q48 54 88 109l107 112l45 48v7q-26 32 -80 10.5t-143.5 -95.5t-213 -209.5
t-252 -327t-190.5 -308t-86 -186t-29 -87t-15 -66.5zM1135 1903h56q128 0 178 -85q28 -44 33 -84l28 -72l2 -24q-7 -84 -36.5 -148t-94.5 -160l31 84q38 118 35 151.5t-55 19.5t-71.5 -31.5t-192.5 -199.5q-89 -96 -155.5 -167t-109 -142.5t-57 -103t-104.5 -209.5
t-122.5 -259.5t-25 -121.5t56.5 -41.5t193 63t255 124t310 176.5q66 41 43.5 16.5t-61 -52.5t-119.5 -94.5t-223 -165.5t-176 -127t-31.5 -46t28.5 -26t76 -10t53 -11v-4l-13 -9l-89 -4h-37q-14 4 -63 8.5t-162 -2.5q-76 16 -88.5 34.5t-26.5 52.5q-79 19 -122 39l-103 51
q-6 -37 -12 -114q19 -85 52 -111q98 -69 228.5 -45.5t176 37.5t84 31t13 -3.5t-52 -34t-48.5 -22t-76 -28t-131 -30.5t-157 15q-46 25 -67 44l-22 30l-17 37l-9 35l-4 45q4 92 13 122l2 16q-66 65 -101.5 122.5t-41.5 140.5q-11 107 1 166t20.5 87.5t45.5 125.5
q72 151 137 259l67 108l56 74q5 0 22 31q88 101 117 123q49 48 113 96q88 66 178 110q66 37 150 61q81 32 206 50z" />
    <glyph glyph-name="D" unicode="D" horiz-adv-x="1146" 
d="M1136.5 1859.5q36.5 -26.5 61.5 -102.5t25 -196t-219 -354q-383 -341 -544 -534.5t-225.5 -283t-71.5 -129t-41 -73.5t-49 -106.5t-40 -76.5t-33 154q6 114 22 124t47.5 47t31.5 81q0 37 63.5 227t98 287.5t56.5 161.5t50 144.5t-16.5 96.5t-8.5 188q53 192 192.5 278
t280 102t212 3.5t108 -39zM218 513q95 67 411.5 389.5t397.5 440t50 220t-133.5 109t-185 -25.5t-132.5 -80.5t-102 -172.5t-122 -321.5t-184 -558.5z" />
    <glyph glyph-name="E" unicode="E" horiz-adv-x="1667" 
d="M1872 1825.5q-16 -55.5 -164 -159.5l-408 -299l-144 -123v-6h7q187 56 275 62q25 0 50 -34.5t-7 -75t-162 -84.5q-272 -151 -484.5 -317t-553.5 -495l-131 -169v-6q117 42 294 150q345 223 587 331q359 194 644 344l388 187q584 269 875 350q-290 -113 -548 -248
t-554 -289l-261 -150q-61 -46 -68 -57t-102.5 -57.5t-371.5 -204.5l-539 -287q-310 -188 -402 -188t-92 72.5t450 496.5q190 170 306 275v6h-6q-77 6 -114 44.5t-25.5 81.5t45 91.5t258 222.5t318 242t293.5 218t281.5 140.5t65.5 -65z" />
    <glyph glyph-name="F" unicode="F" horiz-adv-x="1157" 
d="M1313 1700q62 1 50.5 -43.5t-66 -41t-118.5 10t-247 -9.5t-271 -115q-23 -23 -167 -249q-74 -153 -47.5 -176.5t238.5 -0.5t284 23t39.5 -41.5t-61 -41.5t-235 -42.5t-253 -70t-89 -42t-72 -57t-43 -94.5t-164.5 -783v-35q-55 -99 -81 -101q-13 0 -11 37q10 13 13 73
q18 24 141 686l26 153q-9 48 -8.5 58.5t21.5 48.5t57 152v13q-14 80 93.5 344.5t274.5 259.5q105 39 262 73q237 11 434 12z" />
    <glyph glyph-name="G" unicode="G" horiz-adv-x="1253" 
d="M1001 599q-90 -58 -238 -151q-42 -25 -162 -117l-54 -35q-77 -62 -102 -70q-218 -171 -344 -171h-19q-54 13 -54 54q-6 0 -16 82q0 91 60 257l29 62q0 24 80 147l105 164q119 179 127 179q61 97 127 175q164 219 226 276q59 74 166 171q118 100 191 116q0 9 41 12
q45 0 64 -70q0 -123 -105 -159q0 -8 -16 -8h-48q-90 -35 -102 -47q-23 -20 -44 -23q-4 -13 -57 -47l-115 -113q-154 -163 -261 -299q0 -10 -111 -132l-112 -156q-28 -27 -48 -101q-111 -170 -111 -276q13 -39 32 -39q62 0 156 51q127 50 207 109q57 35 124 62q35 0 174 89.5
t158.5 97t67.5 103.5q11 32 23 53q1 8 2 15q6 49 71 26.5t58.5 -81t-39.5 -103.5q-3 -12 -6 -27q-10 -43 -20 -107t-25.5 -93t-14.5 -42.5t-8.5 -71t-10.5 -59t-4 -9.5t-2 -21t-1 -25t-4.5 -13.5t-1.5 -3t1.5 -5.5t-4 -9.5t-6 2.5t-3 7.5t-5.5 -23.5t-3 -33t1 -11.5
t1.5 -1.5t4 21.5t4 23t2.5 1.5t3.5 -2.5t2.5 -3.5t-2 -4t-3 -20t-4 -20t-4.5 -2t-2.5 1t0.5 -19.5t-4.5 -20t-4.5 -4.5t-0.5 -4t-3 -9.5t-5 -14t-2.5 -11t0 -14.5t1 -10.5t2.5 -3.5t-2 -5t-2 -5.5t3 -5.5t3 -23.5t-9 -20.5t-9 -2v-4t3.5 -2.5t5 -0.5t1.5 -2.5t-3 -5.5
t-1.5 -10.5t2 -12t-1.5 -13.5t-9 -8.5t-8.5 -6t-1.5 -11t2.5 -5t6 3.5t5 1.5t1.5 -4t-11 -15t-11.5 -22t1 -11t1.5 -2.5t-4.5 -18.5t-1.5 -21.5t-1 -13.5t-1.5 -12t-1 -6.5t-1.5 -10.5t-2 -17.5t-2 -16t0.5 -6.5t-1 -3t2 -5t-1.5 -10.5t-2 -19t-1 -20t-0.5 -11.5t-0.5 -6.5
t-1 -15t-2 -32t-2.5 -27.5t-0.5 -22.5t0 -24t-2.5 -29t-2 -36t-0.5 -20t-0.5 -9t0.5 -5t0.5 -1.5t2 -6.5t-1 -16t-0.5 -25t-1 -16.5t-1 -15t0 -13.5t-2.5 -1.5t-2.5 1t-2.5 1.5t-1 9t-0.5 22t-0.5 18.5t-0.5 6.5t-2 92t-2.5 107t1 16t1.5 1.5t-2 12t3.5 152t3 142.5
t5.5 128.5t9 131t7 70.5t7.5 96t2.5 30.5t5.5 47t11.5 63t10.5 44.5t10.5 58q2 9 3 15z" />
    <glyph glyph-name="H" unicode="H" horiz-adv-x="866" 
d="M905 1208q4 -1 12 8.5t1 6t-12 -8.5t-1 -6zM317 781q4 0 157 106.5t229 162.5t91 105q-10 0 -102.5 -55.5t-216 -149t-131.5 -119.5t-17.5 -28.5t-9.5 -21.5zM424 756q5 0 58 24.5t253 131.5l15 63q-10 0 -168 -102.5t-158 -116.5zM287 586q20 0 249 170q-5 0 -117 -65.5
t-122 -65.5t-10 -39zM648.5 68.5q-38.5 -152.5 -74 -231t-40.5 -31.5t3.5 66.5t40 208.5t63 343.5t39 206.5t1.5 77q-14 0 -137.5 -60t-275.5 -169q-208 -1039 -221 -1051t-30 -17t-17 10q19 35 85 461.5t88 533.5t73 411t90 518q0 44 -14.5 56t-14.5 35.5t53 118.5
q0 19 27 29t44 -18.5t-90 -633.5q203 169 472 296q64 275 131.5 467.5t82.5 198.5t17.5 1t-48.5 -221.5t-80 -406.5l43 10q21 -6 25.5 -15t-44 -57t-59.5 -88l-58 -322l-54 -248q-82 -326 -120.5 -478.5z" />
    <glyph glyph-name="I" unicode="I" 
d="M558 1871.5q27 -28.5 20 -89t-30.5 -119.5t-58.5 -111t-49.5 -89t-66.5 -140t-75 -167t-35.5 -100.5t-24.5 -70.5t-27.5 -89t-29 -116t-26.5 -121t-24 -136t-21 -105t-18.5 -91.5t-15 -140.5t-20.5 -157.5t-24 -119t-23 -46.5t-7.5 117.5t16 249t14.5 167t19.5 150
t29.5 197t44 215t46.5 176t27.5 95.5t23.5 106.5t18.5 79t20 80t28 134.5t26.5 110t24 66.5t38 53.5t48 32.5t63.5 7.5t69 -28.5z" />
    <glyph glyph-name="J" unicode="J" horiz-adv-x="753" 
d="M1008.5 2067q9.5 6 6.5 -20.5t-32.5 -91.5t-45 -145t-63 -222.5t-47 -150.5t-35.5 -113t-46.5 -130t-8.5 -46t-28.5 -97.5t-33 -109.5t-20 -93t-25.5 -60.5t-21.5 -69.5t-39 -149t-44.5 -149.5t-56.5 -189t-56 -214t-48.5 -162.5t-43 -110t-57 -92.5t-65.5 -65.5
t-72.5 -19.5t-74.5 55t-40.5 120t-23.5 134t-8.5 96t-0.5 35.5t-5 28.5t-5.5 60.5t-4.5 109.5t-1.5 129.5t-11.5 250.5t6.5 191.5t26 19.5t17.5 30.5t28.5 18.5t53.5 4.5t59.5 -82.5t17 -130.5t-20 -92t-31 -105t-17 -88.5t6.5 -166t25.5 -154t38 -29t54.5 -7.5t132 269.5
t185 533.5t86 274.5t16.5 43.5t34 95.5t52 146.5t34.5 96t12 36.5t52 123.5t38.5 104t37 99t45 120.5t13.5 33t16.5 40t19.5 43.5t19 13z" />
    <glyph glyph-name="K" unicode="K" horiz-adv-x="1565" 
d="M1519 1900h5l6 -5q-13 -6 -14 -11v-3q19 -2 19 -11v-5l-5 -8l5 -8l-3 -9l3 -13v-8l-22 -22l-2 3h-3q0 -11 -14 -22l-38 -49l-119 -175q-21 -25 -21 -17t-14 -15t-108 -158q-100 -149 -99 -149.5t26 27.5h3v-2q-40 -70 -57 -89.5t-19 -16.5v3q46 73 43 73t-49 -70.5
t-113 -205.5l-22 -49v-8l8 5h3l-3 -16l3 -8l-27 -62l2 -3v-3q-16 -30 -26 -92.5t-1.5 -130.5t47.5 -120t128 -132t203.5 -155.5t205.5 -120.5t105 -47h5q54 -29 51 -32h-5q-34 18 -57.5 21.5t-41.5 3.5q9 -7 30 -14q-10 -6 -21.5 -2t-96.5 42l-66 29h-2l-6 1l67 -36h-14
q-178 95 -365.5 229t-229 224t-34.5 170v16l8 71v2q20 92 44.5 143t44.5 95q69 132 138 236q160 226 225 325q47 60 70 103v2l-140 -146v3q10 17 89 100q74 81 79 90.5t53.5 74t105.5 127.5q17 21 33 30zM692 1877q9 -23 -12 -75t-74 -179.5t-81 -205t-47.5 -101.5
t-34.5 -56.5t-26 -60.5t-23 -64t-42 -139q-6 0 -11 -32q-14 -24 -30 -84q-5 -2 -40 -109l-57 -151q0 -23 -49 -154q-16 -57 -14.5 -57t13.5 39t30 80.5t27 81.5t147 402l-78 -257q-41 -103 -53 -150t-32.5 -108t-38 -115.5t-17.5 -58.5t141 178q356 454 574 720
q187 215 314 338h2v-3q-59 -71 -59 -78q-6 0 -22 -22v-3h3l59 55h3v-3l-89 -103l2 -3v-2l-16 -22v-3l68 73h3v-2q0 -6 -76 -95l-3 -3v-3l6 -5v-3q-103 -122 -121.5 -150t-30.5 -50v-5h3l48 48h3q-23 -36 -36 -52t-78 -107l-138 -190q-54 -73 -147.5 -186t-177.5 -244v-3
q8 0 49 65q58 80 71 89v-5l-228 -327q-113 -148 -147 -180t-49 -34.5t-31 24.5q-46 19 -47.5 53t4 41.5t20 59t32.5 108.5t26 85.5t8 38t15 40.5t58 151t87 240q40 118 151 379q68 168 75 188.5t9.5 30t13.5 39t81 190.5t77.5 185.5t32.5 20.5z" />
    <glyph glyph-name="L" unicode="L" horiz-adv-x="751" 
d="M892.5 1885q26.5 -15 26.5 -44.5t-27.5 -53.5t-50.5 -33t-32.5 -18.5t-3 -62t-6 -114t-71.5 -125t-85.5 -72t-59.5 -27.5t-80 -60q-18 -22 -21.5 -34.5t-35.5 -46t-48.5 -71t-56 -113t-56.5 -111.5t-107.5 -255t-90.5 -232.5t-16.5 -91.5t-19 -104t-2.5 -45t12 -24.5
t49 -2.5t77 51t79.5 93t79 72t105.5 85l-8 -14v-5q-123 -143 -188 -231t-85.5 -125.5t-45.5 -55.5t-72 -13t-51 79t9 151q31 170 50 250.5t71 207.5q74 172 82 186t126 276q79 154 98.5 208.5t31.5 121t18 99t37 50t151 110.5q104 123 126 139.5t43.5 18.5t48 -13zM530 539
l-16 -23v-5l-25 -36l-31 -26l18 32q24 38 54 58z" />
    <glyph glyph-name="M" unicode="M" horiz-adv-x="1048" 
d="M0.5 -37.5q11.5 75.5 33 189.5t51.5 262t45.5 223t42 218t109.5 915q25 82 71 70t99 -157.5t94.5 -286t48 -179t39 142.5t65 338.5t39 193t33.5 35.5t44 -13t33.5 -71.5t27.5 -172t23.5 -188t10.5 -83.5t48 -412t53.5 -496.5t3.5 -134.5t5.5 -69.5t5.5 -43.5t-27.5 -30.5
t-40 16t-2 83.5t10.5 88v37t-4 51.5t-137 956.5q-17 88 -25.5 109t-26.5 -32t-61.5 -287.5t-67.5 -416.5t-49 -224t-42.5 -17.5t-25.5 197t-25.5 277.5t-50 208.5t-42.5 121.5t-39.5 -152.5t-48 -253t-36 -168t-29 -128t-42.5 -157t-44 -155.5t-48.5 -176.5t-35 -198.5
t-27 -75t-49.5 -21t-10.5 66.5z" />
    <glyph glyph-name="N" unicode="N" horiz-adv-x="750" 
d="M920.5 2385.5q4.5 -18.5 -8.5 -65t-13 -58t-17.5 -55.5t-29 -96.5t-30.5 -124.5t-30.5 -122.5t-21 -108t-11 -80.5t-9.5 -40.5t-6.5 -27t-10 -51.5t-26 -146.5t-17.5 -154t-11 -93t-8 -64.5t-3.5 -45.5t-8 -40.5t-9.5 -62.5t-11.5 -62.5t-5 -29t-2.5 -35t-9.5 -50
t-4 -45.5t-4 -29.5t-12 -73t-9 -79t-7 -43t-8 -49.5t-8 -24.5t-6.5 18t-2 26t5 18t3.5 18t6.5 52t9.5 77t6.5 42.5t5 19.5t0.5 32t6 43.5t6 40.5t7 46.5t4.5 42t1.5 34t8 59.5t11 65t6.5 48.5t3.5 31.5t1.5 22.5t2 50t8.5 49.5t2.5 20.5t8 64.5t8 74t3.5 67.5t8.5 64.5
t11 55.5t8 67.5v26.5t6 21t13.5 69.5t24.5 137t46 185t57.5 186t42 94t18 -12.5zM347.5 1513q33.5 -5 59.5 -3.5t42.5 -1.5t40.5 -29.5t28.5 -64.5t-5.5 -126.5t-10 -133.5t-11.5 -249.5t-14 -289.5t4.5 -284.5t33.5 -111t26.5 114t5 37t5 27.5t4.5 20.5t9.5 0t5 -12.5
t-3 -21t-3 -29t-5 -27.5t-5 -30.5t-6.5 -35t-5 -27.5t1.5 -42t-10.5 -68t-39.5 -35.5t-41 50.5t-15 89.5t-6.5 201t-3.5 220t8.5 227t4.5 231t-30.5 73.5t-53.5 3.5t-52 -80t-42.5 -159.5t-38.5 -135.5t-21 -74.5t-7.5 -57t-16 -93t-23 -152t-29 -170.5t-33 -171.5
t-27.5 -185t-4 -161.5t5 -83.5t-8 -29t-31.5 -14.5t-29 19.5t-5.5 42t9 75.5t8 103t2.5 99.5t16 157.5t20.5 162.5t24.5 154.5t32.5 198t13.5 155t-14.5 71t-17 44.5t3.5 44t26 26t27 34.5t9.5 53t-9.5 51.5t-9.5 51.5t11 82.5t27 104.5t30.5 85t39 58t47 26t56 -5z" />
    <glyph glyph-name="O" unicode="O" horiz-adv-x="1724" 
d="M919.5 1860.5q92.5 -10.5 139 -28.5t104 -32.5t116.5 -43t99.5 -63t91.5 -91.5t60 -70.5t27 -22.5t43 -7.5t54.5 -8.5t54 -50.5t24.5 -42t10.5 -64.5t13.5 -143.5t-15 -226.5t-46.5 -201t-44.5 -88t-68.5 -115t-87 -125.5t-84.5 -100.5t-94.5 -90t-99.5 -69t-128.5 -71.5
t-160 -68.5t-146.5 -33t-89 -6t-58.5 -7.5t-82 1.5t-109 16.5t-65.5 21t-49.5 13.5t-42 4.5t-1.5 -3t25.5 -32t62 -53.5t86.5 -39.5t75.5 -18t55 -11.5t66 -13.5t68 -0.5t24 -11.5t-45 -22.5t-70.5 -11t-128.5 10.5t-151 32.5t-100.5 58.5t-78 79.5t-82 111t-49 99
t-22.5 90.5t-22.5 139t-7.5 181t-6 134.5t0 57t-3 27t-19 -40.5t-23 -26t-0.5 63.5t24.5 125t45 158t59 157.5t57.5 123.5t59 98.5t62 82.5t57 62.5t30 57t112 59.5t177 64.5t135 33t162.5 -9zM130.5 1073q1.5 0 10.5 16t21 40t46.5 79.5t68.5 104.5t63.5 87.5t72.5 78
t58.5 58t37 33t23 16t4.5 6t-3 7.5t-35.5 3t-80.5 -25.5t-70 -30.5t-49.5 -37.5t-53 -77t-46.5 -104t-36 -115.5t-22.5 -97.5t-9 -41.5zM207 768.5q0 -7.5 1.5 -18t5.5 -8.5t13.5 36t34.5 96t46.5 94.5t27.5 46t39 56.5t57 80.5t56.5 73.5t78.5 82.5t100.5 87t54.5 43
t-9 2.5h-32t-77 -12.5t-120 -56t-99.5 -92t-80 -126.5t-46.5 -91t-12 -42.5t-21 -99t-13.5 -85.5t-4.5 -37.5v-29zM506.5 971q6.5 -21 22.5 -21h25t33 34.5t40.5 51t42.5 40.5t51 40t89 55t74.5 44t10.5 7.5v4t-10.5 15t-31 13.5h-60t-99 -49.5t-81 -63t-48 -44.5t-43 -48
t-19.5 -37.5t3.5 -41.5zM1420.5 1066.5q-1.5 -32.5 -33 -118l-35 -95t-18 -30t-26.5 -40t-25.5 -37.5t-44.5 -55t-76 -76.5t-61.5 -46.5t-80.5 -60.5t-140.5 -70.5t-126.5 -27.5t-66 -10.5h-87.5t-128.5 76.5t-66 76.5t-18 -14t-12 -31.5t-1.5 -44.5t19.5 -57t48.5 -61
t46 -44.5t73.5 -42t108 -28.5h62t66 4.5t82 16.5t62.5 25.5t90 41.5t97.5 53.5t118 100.5t101.5 113.5t25.5 60t12 46.5t12 47.5t12 61t12 82.5t1.5 45.5t1.5 3t-1.5 16.5t-1 33t3 18t1 1.5t-1.5 12t3 27t3 35.5t-4.5 22t-6 -29.5zM743 884.5q0 -23.5 12 -31.5t19.5 -8
t50.5 8.5t70 16t46.5 8t70.5 26t60 29.5t9 15t-8.5 45.5t-49.5 34.5h-42.5h-36.5t-89.5 -33t-75 -42.5t-28.5 -27t-8 -41zM1552 873q-11 -56 -28.5 -94.5t-30 -77.5t-57 -106t-74 -109t-36 -55.5t-6.5 -16.5t3 -3t44 25t87 75t82 118t36 160t-1.5 110t-1.5 24t-3 6t-14 -56z
" />
    <glyph glyph-name="P" unicode="P" horiz-adv-x="847" 
d="M227.5 747q-16.5 -47 -103 -267t-117 -323t-72 -220t-52 -143t-19.5 -80.5t-6.5 -68.5t-19.5 -19.5t-29 -5.5t-8.5 11t23.5 77t44.5 156t36 140t47.5 150.5t47.5 156t33 108.5t28 86t28 61t16.5 64t-14.5 63.5t58.5 168.5t90 186t42 149t36 171t5.5 72.5t-8.5 52.5
t45.5 129t133.5 161.5t183 128.5t147.5 67t94 29t56 11h66.5t61 -55.5t9 -64t3 -53.5t-42 -94.5t-132.5 -143t-258 -239.5t-238.5 -249.5t-134.5 -214.5t-80 -158zM407.5 1212.5q12.5 0.5 91.5 89t219 229t159 175.5t13 49t-19.5 14t-134 -45.5t-198 -161.5t-110.5 -233
t-20.5 -116.5z" />
    <glyph glyph-name="Q" unicode="Q" horiz-adv-x="1979" 
d="M1883 865.5q0 -24.5 -24 -96.5t-62 -118.5t-63 -96.5t-70.5 -72t-82.5 -60.5t-45 -38.5t-66.5 -51.5t-73 -51.5t-102 -48.5t-93.5 -48.5t-20 2.5t-14 -2.5t-14 -5t-28 2.5t-45 -10.5t-42.5 -10.5t-73.5 -5t-81.5 -2.5t-88.5 2t-73.5 -7.5t-4.5 -9t17 -8t39.5 1.5t31 -2.5
t8.5 -12.5v-11t30 -23.5t80 -41t184.5 -98t373 -58t290.5 48.5t64.5 56.5t10 47t21 30t57.5 -1.5t35.5 -35t-9 -47.5t-110 -92t-289 -103t-310 -18t-247 80t-227.5 58t-169 11t-159 6.5t-298 -19t-183 13t206 34t216.5 41t110.5 32.5t-40.5 15t-128.5 73t-110.5 123.5
t-157.5 147.5t-67 143t-8 204t39 298.5t105.5 303t127 223.5t114 114t112 83t245.5 62t206.5 12t34 -10.5h41t50.5 -18t49.5 -15.5t144 -10t118.5 -20.5t28 -8t67.5 -25.5t123.5 -68t96 -54t37 -60.5t76.5 -105.5t56.5 -97.5t18 -41t28.5 -113.5t12.5 -159.5t0 -66.5
t-11.5 -42.5t-14.5 -46.5zM1897.5 1227q-2.5 0 -2.5 7.5t2.5 10t2.5 -7.5t-2.5 -10zM1461.5 546.5q32.5 21.5 114.5 102.5t82 126t-11.5 45t-11.5 -7t-25.5 -46t-81.5 -92t-70 -82.5t-76.5 -78t-62.5 -54t3 -5.5t17 2.5t17 0t-5.5 -18t-3 -15.5t17 8t17 3t5.5 -10.5
t-5.5 -13t-5.5 -15.5t8.5 -8t56.5 30t48 59.5v34.5t-18 2.5t-51 -25.5t-35.5 -23t-5.5 2.5t23.5 29.5t59 48.5zM1382 1133q0 22 -11.5 63t-11.5 46t5.5 20.5t-3 36t-28 11t-19.5 -23v-21t14 -23t22.5 -49t3 -38.5t-8.5 -5t-6 2.5t-3 12.5t-8.5 10t-69.5 41.5t-76 41.5h-17.5
t-2.5 -5.5t2.5 -5.5t20 -15t25.5 -15t49 -23.5t62 -95.5t26 -72t14 23.5t0.5 38.5t6 19t14.5 26zM1353 377q0 4 -11 7.5t-36.5 -14.5t-105 -45.5t-96 -38.5t-2 -11t73.5 18t118 41.5t59 31v11.5zM1319 934q0 5 -5.5 5t-5.5 -10.5t5.5 -5t5.5 10.5zM1274.5 666q-5.5 -5 0 -5
t5.5 5t-5.5 0zM1274.5 867q-5.5 0 -5.5 -5.5t5.5 -5.5t5.5 5.5t-5.5 5.5zM1240.5 635q-5.5 0 -5.5 -5t5.5 -5t5.5 5t-5.5 5zM1136 476q-3 0 -8.5 -5t-2.5 -5t8.5 5t2.5 5zM964 1118q-17 16 -30 16t-28 -7.5t-113.5 -68.5t-98.5 -77t5.5 -26.5t25 -10.5t129.5 25t110 46.5v47
t8.5 25.5t8.5 7t-17 23zM942 744.5q-17 11.5 -17 18t-3 6.5t-99 -25.5t-85 -43.5t34 -18h37t17 7.5t68 23t65 18t-17 14zM735.5 239q-8.5 0 -8.5 -2.5t8.5 -2.5t8.5 2.5t-8.5 2.5zM707.5 92.5q-8.5 -2.5 -8.5 -5t8.5 -2.5t8.5 5t-8.5 2.5zM648.5 239q-33.5 0 -33.5 -2.5
t28 -5t33.5 2.5t-28 5zM643 622q-34 18 -80.5 51t-59 80t-38 74.5t-25.5 36t-3 8.5t-11.5 -31t-4 -67t11.5 -36t36.5 -72t110 -72t89 2.5t8.5 5t-34 20.5zM397.5 1165q53.5 82 107 141.5t53.5 69.5t-2.5 10t-56 -33.5t-59.5 -46t-39 -64.5t-50.5 -64.5t-33 -35.5t-22.5 -23
t-24 -98t-14.5 -98t2.5 -5t42.5 80t96 167z" />
    <glyph glyph-name="R" unicode="R" horiz-adv-x="1459" 
d="M818 1770q5 0 74.5 53t109 71t87 41t120 43.5t124.5 25t64 4.5h52t40 -27.5v-32v-58.5t-42 -89.5t-82 -88t-70 -71t-177 -162t-267 -257.5t-126 -114t-6 2.5t132 144t215 232.5t143 175.5t82 108.5t22 43.5t-14 19.5t-22 4.5t-110.5 -19t-142 -50.5t-56 -35t-80 -59.5
t-169 -176.5t-120 -167t-56.5 -102.5t-42 -89t-14.5 -51.5t-30 -69t-15.5 -69t16 -23t45 21t89.5 60t77.5 49t21 -2.5t-82.5 -104t-88.5 -101t-2 -23.5t38 -45.5t84 -79.5t58 -58.5t32 -16t37 -19.5t103.5 -64t121 -78t72.5 -39t126.5 -81.5t172 -125t107 -72.5t45.5 -18
t36 -12t14 -27.5v-20v-27t-9 -33.5t-11 -11h-19.5t-66 42.5t-94.5 84t-115 90.5t-209.5 132.5t-285.5 148.5t-207 78t-100 46t-48.5 55.5t-30 22.5h-44.5t-36 -38.5t-19 -44t-18 -53t-14 -47.5t-6 -23t-28 -91.5t-35 -76t-30 -114.5t-37 -219t-19.5 -131t0 -48t3.5 -78
t-34 -62t-40 -13h-22t-16 18.5v50.5t8 56.5t32.5 136t30 152.5t15.5 91.5t16 128t3.5 149t-21 83.5t-23.5 72t9 106t32 68t24.5 67t7 108t-4.5 97.5t-5 89.5t42 87t74 43.5t74 5t62 -11.5t22 -5t46 36.5t86 110t74 121.5t78 103t76 78t28 25.5t26 23t33 20.5z" />
    <glyph glyph-name="S" unicode="S" horiz-adv-x="1185" 
d="M1047 1966l44 -3l27 3q94 -28 106 -37.5t23 -49.5t5 -75t0 -65t-2 -65t-1.5 -53.5t-6 -92t-43.5 -129.5q-24 -40 -53 -40h-9q-40 6 -40 16l-3 17l-3 3v4l15 80v40q-3 13 0 27q0 26 6 36v4q0 54 -87 70h-37l-12 3l-174 -50l-65 -33l-121 -60q-13 0 -59 -37
q-101 -54 -161 -104q-71 -50 -140 -113l-80 -87l-37 -73q12 -49 158 -167q8 0 124 -80q137 -74 266 -190q115 -136 115 -200q12 -29 19 -97l-6 -97l3 -23l-3 -100l3 -37q-3 -67 -3 -70.5t-5 -8t-13 -43t-23 -102.5q-28 -56 -31 -80q-32 -64 -65 -113q-4 0 -12 -24h-6v4
l71 153q7 0 22 70q6 0 6 30l12 34v10l-6 6l-53 -110q-18 -22 -21 -40l-4 -3h-9l47 100q49 143 49 180h-3q-4 0 -18 -33q-4 0 -19 -47q-6 0 -19 -40q-5 0 -28 -37l-3 4v6q78 150 78 227q-20 79 -84 157l-108 93q-139 91 -276 161q-37 33 -56 40q-101 85 -121 136
q-23 0 -56 144l-3 57l9 36l-9 40l9 94l-6 20l3 3v4l-3 30q6 65 31 116q81 203 409 417q104 67 183 107q96 54 183 80q80 30 180 47zM105 1235h6q0 15 31 54q73 110 189 197q92 79 161 120q25 20 146 90l139 70l149 53q76 24 171 24h6l3 3v3q-21 40 -37 43t-47 4h-28
q-52 0 -207 -53q-40 -27 -131 -67q-19 -16 -71 -34q-18 -20 -133 -83q-2 -7 -25 -17q-40 -36 -50 -36q-195 -161 -235 -254q-22 -25 -37 -113v-4zM114 1165v-10l6 -6l47 56q75 91 117 124q138 122 264 193q282 178 508 204h41l3 3h3q-25 40 -43.5 43.5t-27.5 3.5
q-86 0 -165 -24q0 -10 -25 -10q-13 -10 -130 -56q-21 -19 -87 -44q-87 -51 -99 -63q-9 0 -68 -40q-19 -6 -59 -43q-64 -40 -183 -157q-53 -57 -68 -100q-33 -44 -34 -74zM151 955l6 -7h3l-6 7h-3zM167 938q64 -83 130 -120q108 -77 226 -147q95 -61 183 -150l34 -36v3
q0 10 -31 63l-34 34q0 10 -12 10q-1 7 -72 66l-108 67q-28 23 -75 43l-71 44q0 4 -43 20q0 7 -53 40q0 8 -22 17v6q-25 10 -43 37zM163 822v-7h4v7h-4zM188 795v-7q41 -47 121 -100l84 -57q149 -91 229 -150l69 -63l34 -44v-3h9q-12 51 -71 104q0 8 -81 73q-9 0 -25 17
l-136 80q-136 68 -192 120q-7 11 -38 27zM641 -119h6v-7h-6v7zM638 -129h3v-4l-6 -6h-3v3zM669 -196h3v-3q-26 -50 -37 -61l-3 4v3q32 57 37 57zM650 -346h3v-4q-15 -33 -28 -33q7 20 25 37z" />
    <glyph glyph-name="T" unicode="T" horiz-adv-x="1106" 
d="M215 1861q53 23 68 21t132.5 17.5t128 19.5t40 -2.5t55.5 -2.5t93 11.5t286 10.5t313 11t72.5 -23t-30.5 -63.5t-160.5 -45.5t-326.5 -45t-183.5 -44t-30 -33.5t-42 -58t-38.5 -97t-17.5 -80t-35.5 -88t-47.5 -100.5t-56.5 -145t-89.5 -364t-60.5 -373.5t-14 -132
t-4 -73.5t-4 -111.5t2 -63t-10 -22.5t-20 -11t-18 2t-8 24.5t14 198.5t32 304.5t25.5 224t14 107t4.5 25t-2 22t4 49t10 45l18 13.5t12 16t-4 2.5t-13.5 -7.5t-8 6.5t1.5 29.5t4.5 37.5t6 38.5t9.5 49.5t16 96t14 84t24 118.5t22 115.5t6 13.5t0 2t4 44.5t-2.5 70.5
t-199 -8.5t-233.5 -60.5t-54 54t22 92.5t119.5 35t139.5 43.5zM469 1652.5q0 -11.5 -12 -51.5t-30 -116t-18 -78.5t-12 -65t-17 -68t-12 -58t-17 -84t-12 -58t-2 -38t4 -11.5t72 293t72 317.5t2 27t-10 2.5t-8 -11.5z" />
    <glyph glyph-name="U" unicode="U" horiz-adv-x="1352" 
d="M449.5 1871q66.5 11 99 -27t32.5 -76t-90 -114t-174.5 -198.5t-104.5 -258t-8.5 -331.5t54.5 -379t98 -246.5t157.5 -50t128.5 48.5t74 53t125 124t166.5 280.5t177.5 345.5t149.5 316.5t76 195t21.5 82.5t43.5 25t24 -40t-71 -161t-190 -430t-257.5 -549t-198.5 -347.5
t-112 -125t-64.5 -25.5h-117.5t-174.5 122.5t-137 342t-70 350t-10 299.5t32.5 462.5t140.5 297t179.5 14.5z" />
    <glyph glyph-name="V" unicode="V" horiz-adv-x="826" 
d="M96 1119q0 -55 26.5 -210.5t67.5 -276.5t66.5 -155.5t57 -55.5t90.5 106q85 169 162.5 386t191.5 570.5t128 360t44 64.5t23 -6t-16.5 -76t-123 -379.5t-180 -597.5t-85 -276.5t-36 -63.5t-106 -256t-133 -254.5t-76.5 63.5q-160 916 -194 1003t29.5 98t63.5 -44z" />
    <glyph glyph-name="W" unicode="W" horiz-adv-x="971" 
d="M1135.5 2376.5q3.5 -2.5 3.5 -18t-8.5 -34.5t-6.5 -23t-1 -37.5t-15.5 -60.5t-33 -94t-38.5 -98t-26.5 -68.5t-15 -92t-20 -119t-33.5 -120.5t-20 -106t-17 -184.5t-10.5 -153.5t6.5 -20.5t-29 -132t-35 -187t-24.5 -133.5t-33.5 -122.5t-20 -59.5t-8.5 -57.5t-2 -50.5
t-22 -136t-34.5 -159.5t-40.5 -30.5t-53 -6.5t-45.5 67.5t-58 205.5t-55.5 204.5t-27.5 79t-11.5 6t-22 -56t-42 -224t-43.5 -229t-60.5 -106t-80.5 -6.5t-40 48t-12 52t-29 166.5t-17 144t-11.5 114t-8 105.5t3.5 30v47t-23.5 327t-23.5 350.5t-8.5 88t-8.5 55.5t25 26.5
t33.5 7h27.5t28.5 -27.5t-7 -93.5t-16.5 -111.5v-47t1.5 -7t0 -12t15 -238t42 -342.5t31 -159t10 -48t26 102t59.5 272t54.5 260t40 137t36 71.5t25.5 24.5h29.5t57 -14.5t40.5 -35.5t1.5 -28t-2 -69.5t3 -215t10 -152.5t14 38.5t38.5 145.5t56.5 211.5t48.5 167t27 110
t18 53.5t30 75.5t37.5 122.5t78 225t75.5 212.5t16 47t17 24.5t17 33t23.5 27.5t28.5 7t5 -10t-5 -9.5t-16.5 -47t-15 -63.5t-5.5 -27t1.5 -5.5t22 40t41 99t28.5 60.5t9.5 -1z" />
    <glyph glyph-name="X" unicode="X" horiz-adv-x="1366" 
d="M1164 2234q4 0 12.5 -11t11.5 -11t18.5 9.5t33.5 9.5t30.5 -12t12.5 -31.5v-27.5v-12t-11 -6t-33.5 -20t-22.5 -33t-22.5 -68.5t-24 -53.5t0 -1.5t1.5 -4.5t-8.5 -19t-8.5 -22t-8 -20.5t-18 -47t-14 -37.5t-8.5 -23.5t-7.5 -19.5t-11 -27t-18 -43t-8.5 -22t-8.5 -18.5
t-19.5 -40.5t-38.5 -84t-32.5 -85t-8 -50t-9.5 -22t-3.5 -1.5t1.5 -4.5t-4.5 -8t-3 -6.5t1.5 -3t-25 -61t-31 -53.5t-6 -6.5t-11 -45.5t-8 -36t0 -6t-3 -20.5t-8.5 -42t-29.5 -51.5t-21 -41.5t3 -19t3 -9.5t-5.5 -12.5t7 -10.5t12.5 -9.5t1.5 -6.5t5.5 3t8 3t14 -3.5
t10 -12.5v-14t28 -34.5t29.5 -31t1.5 -3t-1.5 -3t-3 -1.5t-14 7.5t-14 7.5t3 -7.5t17 -17t63 -58t50.5 -53.5t9.5 -9.5t36 -33t29.5 -28.5t4.5 -1.5t1.5 -3t-8.5 -4.5t81 -91t106.5 -101.5t26.5 -28.5t8.5 -16.5t-2.5 -1.5t-13 15t-42 34.5t-48 37.5t-42 34.5t-24.5 15t6 -5
t14 -14t41.5 -40.5t100.5 -92.5t67 -65.5t10 -9.5t53.5 -47.5t43.5 -44t7 -6t12 -10.5t25 -23.5t20 -19.5t10 -9.5t19.5 -17t8.5 -12.5t-2.5 -1.5t-41 34.5t-50.5 42t-11 12.5t-7.5 6.5t-31 25t-28 23.5t-8 8t-26 23t-25.5 22t-92.5 85.5t-104 88.5t-54.5 48.5t-65 71
t-32.5 34.5t-10 2t-1 -1.5t1.5 -4.5v-5.5t-6 -5t-9.5 -2.5t-16.5 14t-17 14t-12.5 11t-62 49t-81.5 56.5t-41.5 1t-24 -23.5t-9 -7.5t1.5 -14t4.5 -12.5t4.5 -3v-4.5t-12.5 -18.5t-18.5 -33t-9 -16t-11 -22t-16.5 -31.5t-8.5 -19t-14.5 -39.5t-17 -30t-2.5 -1.5t6 -9
t3 -12.5t-1.5 -9.5t-2 -4.5t-12.5 -28.5t-31.5 -82t-22.5 -70.5t-8 -45t-18.5 -52t-9 -28.5t-2 -4.5t-7 -20.5t-5 -22t-2.5 -1.5t0 -1.5t1 -4.5t-3.5 -7.5t-12.5 -38t-12.5 -35t-12.5 -40.5t-13 -39t-15.5 -49t-18.5 -61t-14 -45.5t-8.5 -35t-1.5 -6t-2.5 -4.5t-1 -1.5
t1.5 -8t-4.5 -11t-3 -6t1.5 -5t-8.5 -36.5t-10.5 -33t-8.5 -33t-16 -59.5t-13 -30t-5.5 -17t-6.5 -29.5t-10 -20.5t-4 -6t1.5 -3.5t-7 -14.5t-8.5 -10.5t-1.5 6.5t5.5 20t5.5 30t11.5 52t10 39t-1.5 3t1.5 14.5t7 25t5.5 26.5t8 38.5t16.5 76.5t17 74.5t7 24t0 14.5t7 22
t4.5 14t1 10.5t4 6t0.5 2t-1.5 8t4.5 11t3 6.5t-1.5 3t4 20.5t8.5 26t22.5 83t21.5 81t10 36t9 31t7 26.5t11.5 42.5t5.5 17.5t-1.5 3t4 11t2.5 11t-1.5 3t7 17.5t6 20.5t3 7.5t2.5 4.5t-1.5 5t4.5 8t3 6t-1.5 8t14 46.5t18 64.5t23.5 90t21 72t4.5 6.5t5.5 22t4 23.5
t8.5 14t5.5 17.5t7 25t15.5 48.5t8.5 30t1.5 4.5t-57.5 73t-73 78.5t-15.5 16.5t-14 16t-19.5 17t-22 22t-16.5 18.5t-14 15.5t-67.5 65t-106.5 113t-93.5 102t-43.5 44t-29.5 25t-41.5 40.5t-25.5 20.5t-21.5 27t-11 26.5t4 15.5t11 14.5t8.5 5t29.5 15.5t78.5 -5t91 -45.5
t45 -26.5h19.5t19.5 3t6 3t5.5 -3t7 0t21 3t22 3t26.5 3t25.5 -3t-22.5 -17t-26.5 -12.5t-15 -4.5t-14 -8t2.5 -6.5t2.5 -11t-14 -6.5t-12.5 -1.5t28 -17t31 -12.5t10 3t16.5 -12.5t11 -14v-5t-21 -8t-21 -7.5t17 -6.5t17 -6.5t1.5 -1t13 2t16.5 -9.5t5 -11t-2.5 -6.5
t1.5 -9.5t11 0t8.5 4.5t3 -1.5t2.5 0t4 1.5t10 -8t7 -23.5t35 -48.5t54.5 -73t78.5 -106.5t61.5 -66.5t2.5 1.5t-1 3t-1 3t7 26.5t9.5 25t4 11t3 11t0 1.5t-1.5 8t4 11t3 6.5t-1 5t4 7.5t2.5 6t-1.5 5t4.5 8t3 6t-1.5 9.5t5 17t11 39t8.5 30t4.5 14.5t25.5 94t29.5 91
t22.5 31.5t43 106.5t36 117.5t14 36t3.5 10t9.5 29t12.5 36t4.5 12t9.5 23.5t9.5 23.5t7 20.5t8 21t14 34.5t14.5 34t18.5 41t17 41t8.5 12.5t4.5 14t5.5 18.5t10 17.5t8.5 16t9.5 15.5t9.5 6t12 6t15.5 8t13 8z" />
    <glyph glyph-name="Y" unicode="Y" horiz-adv-x="1010" 
d="M546 530q0 2 16 70t28 94t24 66t26 86t12 48t-2 4t42 144t60 216.5t34 110t8 49.5t-6 24t2 18t-48 -57.5t-110 -172t-67 -110t-44 -76t-65 -96.5t-40 -24t-42 14.5t-36 22t-12.5 29.5t-91 163.5t-159 302t-56.5 201t30 56.5t22 16t32 -18.5t24 -40t25 -55t55 -131.5
t124 -242t102.5 -117t31.5 55.5t98 158t101.5 177.5t30 48t42.5 69t92 138t53 78t18 22t26 13t30 -16t24 -14t10 2h41t42 -22t17 -42t8 -50t-8 -49t-18 -82t-18 -95t-8 -34t-34 -118.5t-53.5 -158.5t-36 -89.5t-26.5 -65.5t-32 -82t-48 -160t-56 -138t-30 -62t-24 -106
t-26 -88t-8 -14t-6 -32t-5 -37.5t-10 -20t-3 -4.5t2 -8t-8 -14t-10 4t-4 12t-12 -34.5t-10 -50v-17.5t2.5 -2t10 32t9.5 34t4 2t6 -4t4 -6t-4 -6t-8 -30t-10 -30t-8 -2t-4 2t-2 -30t-10 -30t-8 -6t-1.5 -6t-6 -14t-10.5 -20t-6 -16t-2 -22t0 -16t4 -6t-4 -8t-4 -8t4 -8
t1 -36t-18 -30t-15 -2v-6t6 -4t8 -2t2 -4t-6 -8t-4 -16t2 -18t-4.5 -20t-16 -12t-15.5 -8t-4 -16t4 -8t10 4t8 2t2 -6t-20.5 -21.5t-22 -32t0.5 -16.5t2 -4t-10 -28t-6 -32t-4 -20t-4 -18t-2 -10t-4 -16t-6 -26t-6 -24t0 -10t-2 -4t2 -8t-4 -16t-6 -28t-4 -30t-2 -18t-2 -10
t-4 -22t-8 -48t-8 -42t-4 -34t-4 -36t-8 -44t-8 -54t-4 -30t-2 -14t0 -8t0 -2t2 -10t-4 -24t-4 -38t-4 -25t-4 -22t-2 -21t-4 -2t-4 2t-4 2t0 14t2 34t2 28t0 10t10 140t12 162t4 24t2 2t-2 18t28 230t26 216t28 194t34 197t22 106t26 145t8 46z" />
    <glyph glyph-name="Z" unicode="Z" horiz-adv-x="1151" 
d="M1896.5 499q-239.5 -45 -479 -97t-265.5 -64t-39 -12t-35 -5t-63.5 -20t-108.5 -32.5t-122.5 -35t-96 -25.5t-210.5 -90.5t-217.5 -98t-84 -15.5h-65t-39 61t-10.5 73t5 52.5t29.5 100.5t87.5 187.5t241.5 399.5t256 384.5t90 137t26 50.5t-1 81t-32 54.5t-45 -3t-93 -32
t-178.5 -88t-147.5 -103.5t-48 -142.5t-27 -155t-59 -70t-58.5 -12.5t-84.5 29t-76 61t-7.5 65.5t-3 110t68 137.5t158.5 85t100 35.5t44 24.5t34.5 19t98 58t131 70t114 33.5t101.5 18.5t31.5 3h46t51.5 -42.5t16.5 -82.5v-88.5t-68 -140t-151 -210.5t-104 -135
t-147.5 -210t-154 -251.5t-51.5 -85.5t-57.5 -101t-35 -85.5t-1.5 -27t22 -21t46 -6.5t93.5 6t232 45.5t162.5 43.5t50 12.5t196.5 57t399.5 88t257 39.5t24.5 18.5t101 22t112 6t70 2.5t120 -2t85 -19.5t-236 -62.5z" />
    <glyph glyph-name="a" unicode="a" horiz-adv-x="994" 
d="M957.5 517.5q-17.5 -23.5 -29.5 -109.5t-66 -129t-81 -66t-60.5 -17t-83.5 15t-89 53t-49.5 48.5t-17 5.5t-70 -63t-113 -108.5t-131.5 -100t-112.5 -50t-42 33t-6 43.5t7 41t30.5 98t43 70.5t46 45t76.5 108t108.5 107t140.5 108.5t114.5 77t45 56.5t14 82.5t-75.5 70
t-126.5 28.5t-56.5 6.5t-4.5 51t45.5 88t106.5 65t117 12.5t97 -40t60.5 -44.5t22.5 -25.5t25.5 -47t28.5 -93t50.5 -143t44.5 -169.5t-9.5 -108.5zM379.5 458.5q-29.5 -30.5 -88 -82t-100.5 -103.5t-61.5 -102t-16 -67.5t24 -21t82.5 38.5t149.5 138.5t90.5 114.5t-19 65.5
t-27 48.5t-34.5 -29.5z" />
    <glyph glyph-name="b" unicode="b" horiz-adv-x="844" 
d="M-30.5 385q2.5 4 14 42.5t13.5 42.5t3 11.5t17 54.5q69 251 119 464l30 131q44 201 51 254l15 97l18 129q11 84 53 216q29 80 63 89q18 -7 -1 -126l-31 -169l-23 -110q-25 -111 -25 -155q-24 -199 -24 -239q-6 -25 -2 -26q-9 -64 -7 -76q-14 -96 -18 -239q-9 -65 3 -150
q7 -3 40 70q9 26 65 85q22 12 43 32l37 51q25 41 99 60q45 -13 48 -4l11 -4l55 -34q44 -48 41 -56q37 -71 53 -128q27 -45 57 -146q14 -35 25 -111q-5 -51 -3 -54q-28 -82 -23 -83q-15 -49 -22 -88l-14 -39l-9 -34l-9 -24q-36 -100 -56 -122l-39 -40q-34 -19 -81 -15l-58 34
q-68 52 -99 101q-27 30 -48 65q-22 36 -31 39l-9 3l-25 -32q-68 -90 -95 -81l-6 2q-22 9 -43 57q-23 32 -36 180q1 56 -3 89l9 150q11 57 19 187l-2 1l-2 -3l-22 -63q-79 -261 -108.5 -275.5t-27 -10.5zM630 422q-14 30 -12 35q-16 25 -14 32q-24 51 -39 58l-6 3
q-27 9 -68 -10q-17 -14 -49 -19l-3 -9q8 -3 23 -46q9 -29 34 -67q64 -71 88 -79q17 -7 38 33l7 28l2 3z" />
    <glyph glyph-name="c" unicode="c" horiz-adv-x="1104" 
d="M16 204q-16 87 106.5 251.5t146.5 189t53 67t95 108t111 118t46 58t2.5 7.5t23 30.5t55.5 -2.5t38.5 -55.5t7.5 -64t-13 -95t-34.5 -88t-34 -53.5t-48.5 -26.5t-50 -4t-118 -100.5t-120 -132t-16 -45t12 -65t55 -34t47.5 11t77.5 11.5t119 24.5t129 31t93 16.5
t26.5 -11.5t52 4.5t113.5 22t199 36t138 27t42 6t24 -2.5t23 -4t21.5 -2t-1.5 -13.5t-7 -17t-49.5 -20t-68 -18t-58 -19t-62 -18t-54.5 -12.5t-38 -23.5t-92 -31t-86 -23t-23.5 -4.5t-25.5 -7.5t-80 -30.5t-115 -35t-73.5 -21.5t-105 -40.5t-86.5 -29t-100 -30.5t-172 -49.5
t-96 45t-12.5 69t-17.5 96z" />
    <glyph glyph-name="d" unicode="d" horiz-adv-x="1027" 
d="M1112 1885h24q12 0 16 -35q0 -49 -28 -127q0 -33 -132 -310l-28 -61l-56 -114l-60 -140q-90 -191 -156 -367q-11 -12 -48 -114q-88 -178 -88 -214l-20 -96q10 -61 56 -61q117 0 140.5 -15.5t21 -23.5t-53.5 -36q-61 -61 -118.5 -74t-61.5 -13q-45 8 -104 52l-32 9h-16
q-14 -4 -92 -79l-64 -48q-56 -39 -136 -39h-8q-53 0 -72 105v31q17 79 46.5 146.5t46 84.5t71.5 105l44 48q213 207 308 214q136 52 136 88q16 12 96 210l-16 8q-14 0 -36 -21h-4q-8 0 -8 13q44 146 144 389l96 218q100 183 148 236q30 31 44 31z" />
    <glyph glyph-name="e" unicode="e" horiz-adv-x="1218" 
d="M1114 415q132 47 214 64.5t37.5 -35t-100.5 -86.5l-82 -42l-24 -18l-6 -20l-288 -115q-26 7 -158 -43q-106 -44 -119 -44l-160 -49q-43 -19 -139 -21l-107 14l-34 9q-83 36 -115 82q-38 82 -25 132q11 40 68 92q20 26 71 63l92 70l148 129q8 -2 18 19l185 128
q48 31 117 63q2 6 38 17q2 8 75 32q102 42 152 30l12 -4q50 -13 44 -85l-8 -43q-25 -96 -155 -206q-44 -39 -47 -49q-63 -60 -90 -76l-74 -51q-2 -8 -12 -6q-4 -15 -65 -43q-2 -9 -14 -5q-17 -20 -81 -52l-5 -8l2 -16q37 -9 109 8q8 -3 57 12q15 -4 258 68q78 26 112 43z
M396 457q0 -21 7 -23q30 -8 105 29q9 -2 104 52q72 41 95 79q-13 21 -30 26q-62 -12 -105 -30q-169 -106 -176 -133z" />
    <glyph glyph-name="f" unicode="f" horiz-adv-x="887" 
d="M407 680q29 62 64 136q270 413 349 574l35 55q0 19 44 92q12 38 38.5 113t26.5 80t-3.5 19t-12 14t-48 -54.5t-64.5 -89t-71 -109.5q-20 -27 -62 -101.5t-112 -220.5q-63 -127 -86 -205q-48 -119 -79 -222v-14q-11 -38 -19 -67zM295 312q5 0 138.5 47.5t143.5 49t74.5 23
t-86 -66t-292.5 -137.5l-56 -226q-21 -112 -31 -212q-5 0 -10 -31l3 -44l-7 -27q0 -58 -7 -93l4 -41q0 -109 -45 -109h-7q-16 11 -27 79q6 10 14 126l10 65l-3 31v3l17 134l3 3l-3 3q17 140 31 185l-4 14l28 126q-88 0 -130 64q-116 174 -58 363q138 257 235 -211l31 119
l28 99q72 179 127 411q41 122 55 211q10 0 48 134q9 27 34 44h3q17 0 17 -27q9 -10 21 -10q43 12 99 109q42 58 57 79t63 102l42 65q18 33 58 79q1 23 75 89q52 68 100 68q25 0 31 -55q6 -71 -27 -151.5t-73 -138.5q0 -17 -55 -127q-21 -35 -44 -92q-23 -27 -59 -99
q-24 -47 -82 -130l-58 -99q-46 -57 -79 -113q-7 0 -34 -44q-7 0 -59 -72q-100 -173 -254 -569zM206 339q-108 93 -85.5 26t48 -67t37.5 41z" />
    <glyph glyph-name="g" unicode="g" horiz-adv-x="995" 
d="M63 611q53 61 129.5 110.5t215 146t191 101t65 -18.5t-3 -73.5t-12.5 -69t89.5 -9.5t108 4.5t71 0t83.5 -4.5t52.5 -4.5t37 -4.5t18.5 -18.5v-23v-74.5t-86.5 -110.5t-130.5 -49.5t-176 -92t-147 -133.5t-15 -69t-3.5 -91.5t-6.5 -139t-12 -110.5t-9 -95.5t-15.5 -156.5
t-38.5 -216t-31 -119.5t-14 18.5t12.5 86t19 221.5t0 195t-16 231t-12.5 225t-3 35t-83 -60t-109 -83t-91 -23t-110 69t-35.5 207t68.5 199zM195 389q0 -32 12.5 -41.5t78.5 -9.5t157 129t103.5 161t18.5 59.5t3 27.5t-59.5 -18t-114 -68.5t-94 -60t-62 -55.5t-34.5 -69
t-9 -55z" />
    <glyph glyph-name="h" unicode="h" horiz-adv-x="1037" 
d="M791.5 1843q12.5 0 42.5 16t37.5 16t21.5 -26.5t14 -39.5t-11.5 -126.5t-23 -119.5t-42 -44.5t-71.5 -89t-91.5 -124.5t-77 -105t-35 -41.5t-14.5 -32t-49 -72.5t-87.5 -142t-56 -121.5t-27 -50.5t-41 -61.5t-44.5 -92t-24 -51t-32.5 -79t-27.5 -84t2 -5.5t23.5 32
t46.5 79t106 164.5t120 150.5t74.5 46t44.5 13t39.5 -15t30.5 -44.5t2 -56t-9 -127.5t-11 -134.5v-44t9 -23.5t12.5 -13h45.5t246 132t261.5 116.5t-133 -156t-237 -182.5t-64.5 -58t-46.5 -29t-33 -23.5t-23.5 -10.5h-37h-42t-34 66t-10 126.5v84t7.5 63t7.5 61t-11 21.5
h-14.5t-44.5 -16.5t-109 -111t-74.5 -116t-43 -76.5t-54.5 -92t-61 -110t-70 -79t-34 -8.5t-10.5 -2.5t-12.5 13t0 113.5t9 119t18 76.5t42 127.5t64.5 145t87 165t89 175.5t123 229t113 201t29 74t95 213.5t111 197.5z" />
    <glyph glyph-name="i" unicode="i" horiz-adv-x="601" 
d="M653.5 1404q8.5 2 24 4t18.5 -6.5t7.5 -22t-55 -69.5t-79 -79.5t-19 -25.5t-2.5 -2.5t-21.5 -23t-47 -42t-47 -23.5t-38.5 -3t-24.5 14t-9.5 28t6.5 28.5t9 21.5t50.5 46.5t104 76.5t76 55.5t32 19t15.5 3.5zM375.5 1030.5q3.5 0.5 22 4.5t34 -14t19.5 -28.5t10 -29
t-3 -45t-12.5 -27t-16 -18t-46.5 -46.5t-33 -32t-35 -74.5t-40 -73.5t-8.5 -18t-45 -91.5t-61.5 -137.5t-32 -83.5t-15.5 -45t-7.5 -24t-7.5 -21.5t-10 -25t-18.5 -64t-17 -93.5t-15 -36t-14.5 -3t-13.5 2t-16 19.5t-4.5 34.5t16.5 80.5t32 115t71 194.5t60.5 156.5
t4.5 19.5t4.5 9t13 31.5t9.5 29t13 42.5t17.5 43t-1.5 42t-2.5 68t28 52.5t55 52.5t48 30.5t18 3.5z" />
    <glyph glyph-name="j" unicode="j" horiz-adv-x="536" 
d="M-166 -599.5q-22 144.5 27.5 137t95 -52.5t40.5 -66t8 -37.5t49.5 -10.5t71 54.5t89.5 208.5t110.5 498t68.5 479t14 244t23.5 99t35 -91.5t11.5 -113t-3 -114t-26.5 -272.5t-38.5 -190t-25 -18.5t-44.5 -229.5t-81 -435.5t-91.5 -262t-178 -7.5t-156 180.5zM416 1313h30
q28 0 52 -36l6 -26q-20 -82 -26 -98t-68 -18q-36 0 -50 36q-16 9 -6 66q0 23 22 50z" />
    <glyph glyph-name="k" unicode="k" horiz-adv-x="869" 
d="M522 1817h8q13 0 21 -48v-5q-5 -36 -2.5 -38t2.5 -4t-101 -329l-118 -344q-20 -68 -18 -70t4 -2t313 339l73 93q152 202 194 202l20 -28q0 -80 -97 -142q-125 -124 -157 -177l-154 -174q-7 0 -52 -53q-37 -29 -49.5 -49t-28 -41t-76.5 -75l-12 -20q8 -74 65 -146
q20 -32 64 -113q117 -170 186 -246q68 -90 108.5 -159.5t40.5 -80t-8 -14t-10 -3.5t-155 135q-52 53 -97 85q-33 42 -55.5 60t-58.5 52t-102.5 102.5t-81.5 54.5t-33 -111q-57 -276 -69 -376.5t-15.5 -100.5t-4 -10t-0.5 -28t-4 -36.5t-2 -24.5t-8 -121t-8 -125t-5.5 -44.5
t-26.5 -34.5t-29 3t-10 14v17t22 91t32.5 162t8.5 89t6 68.5t8 78.5t-2 36.5t-4 14.5t-10 -6.5t-14.5 -6.5t-10.5 4.5t-4 6.5t6 24t4 44t0 59t35 202q11 18 24 89q9 2 40 141l-18 25q-14 22 87 201q36 106 61 154q40 19 40 32l117 396q0 31 57 178q40 112 64 133zM92 484
q-30 -121 -28 -127t13 11t29.5 80.5t23.5 110t-1.5 46.5t-36.5 -121z" />
    <glyph glyph-name="l" unicode="l" horiz-adv-x="486" 
d="M527 1720h13q63 -30 63 -53t1.5 -25t1.5 -7t-43 -74q-199 -336 -199 -357t-10 -32t-36 -85q-8 -3 -17 -40q-42 -81 -54 -125t-19 -48t-39 -122q-60 -190 -73 -275l-3 -10v-3l-30 -143q-10 -108 -17 -162q0 -40 3.5 -43t59 113.5t74.5 143t43 27.5t-4 -109t-100 -251
q-32 -51 -69 -70h-27q-29 12 -42.5 46t-12 38.5t0 24.5t-1.5 43.5t17 129.5q11 26 26 26l30 143v3l83 308l30 106v24q0 15 79 261q99 281 169 421l46 90q35 74 57 86z" />
    <glyph glyph-name="m" unicode="m" horiz-adv-x="1753" 
d="M1329 823q73 -43 121 -208q26 -77 90 -175q85 -108 139 -134t122.5 -38t111 -1t58.5 10t-7.5 -18.5t-98.5 -45t-134 -7.5q-118 35 -196 100q-68 75 -117 152l-37 53q-60 122 -165 146q-80 14 -222 -129q-86 -116 -132 -154t-75.5 -35.5t-49 19t-35.5 46.5t-24.5 64
t-43.5 70.5t-86 45.5q-82 14 -147.5 -84.5t-115.5 -223.5q-99 -228 -147 -259q-48 -43 -99 -34l-27 5q-54 10 -31 141q31 71 78 261l13 73l12 226q40 180 144 161q46 -3 69 -15.5t79 -71.5l35 -11q56 3 148 53q53 30 79 34t69.5 -19.5t55 -53t34.5 -115.5q25 -63 44.5 -82.5
t57 -4.5t162.5 134q151 126 178 136t90 -11z" />
    <glyph glyph-name="n" unicode="n" horiz-adv-x="1007" 
d="M784.5 280.5q139.5 37.5 160.5 46.5t50 9t44.5 -20t-55 -41.5t-144.5 -56.5t-176 -62.5t-126 -23t-38.5 19.5t-24 35t-9.5 81t-4.5 78t-4.5 46.5t-3.5 101.5t-12.5 72t-46.5 -35.5t-55.5 -60.5t-31 -46.5t-64 -120t-61.5 -119.5t-29.5 -59.5t-33.5 -60.5t-25 -43
t-38 -44.5t-38 -20.5t-10.5 27.5v35v72.5t35.5 168t57 141.5t50.5 98.5t60.5 127.5t63 149t36 101.5t20 38t32.5 19.5t28.5 -33.5t20 -32t56.5 33.5t95 33.5t59 -63t7.5 -105t-4.5 -122t-0.5 -96.5t-4 -144t10.5 -145t153.5 20z" />
    <glyph glyph-name="o" unicode="o" horiz-adv-x="762" 
d="M564 905q99 0 125 -37t46.5 -44t20.5 -40.5t-17.5 -165.5t-67.5 -220.5t-124.5 -152t-149.5 -114t-158.5 -77.5t-100.5 -27t-32.5 7.5t-44 64t-32 97t-13.5 86.5t-10 67.5t44 153.5t84.5 189.5t81 98l54 54t33 24.5t91 23.5t170.5 12.5zM200 329.5q22 -18.5 80.5 -18.5
t121.5 43.5t97 68t34 44v65t-40.5 54t-104.5 8.5t-101.5 -60.5t-68 -94.5t-35.5 -62.5t17 -47zM99 378q15 0 32 61t-10 48t-32 -61t10 -48z" />
    <glyph glyph-name="p" unicode="p" horiz-adv-x="829" 
d="M878 842.5q-62 -62.5 -227 -197.5q-325 -263 -341 -268t-53 -39t-49.5 -39t-69.5 -180l-54 -176q-61 -189 -86 -300q-33 -97 -78 -291q-8 -35 -91 -357q-16 -57 -41.5 -68.5t112.5 544.5l168 644q0 37 -41 47.5t-49.5 19t-8.5 23.5q0 62 103 62q41 16 41 24.5t14.5 27.5
t96.5 420q8 21 8 57v13q-8 41 -6 51t0 20.5t5.5 45.5t111.5 129q24 33 70 29l147 20h78l160 -20q6 -7 46.5 -16t61 -26.5t27.5 -77t-55 -122zM560 940h-8q-105 -17 -139 -61q-25 0 -140 -349q-49 -128 -49 -150.5t12 -22.5l70 50q68 47 180 147q317 280 317 337
q0 49 -136 53h-16q-29 0 -91 -4z" />
    <glyph glyph-name="q" unicode="q" horiz-adv-x="892" 
d="M606 -677.5q-122 -477.5 -142 -477t-44.5 -14.5t52 283t118 549.5t24.5 414.5q-31 16 -13 41t-260 11t-306.5 51.5t-33.5 156t-6 253.5t7 188t32.5 112.5t110.5 102t139 -4.5t123 -74t100.5 -111t52.5 -104q23 -48 75 -56q86 34 126 40.5t68 -11.5t49 -22.5t-5.5 -222
t-85.5 -423t-181 -683zM216 644q13 -36 11 -39q17 -35 13 -40q25 -64 41 -80l7 -7q30 -28 80 -40q20 1 58 -17l4 6q-9 8 -23 58q-8 32 -34 85q-70 110 -96 135q-19 17 -47 -4l-10 -21h-3z" />
    <glyph glyph-name="r" unicode="r" horiz-adv-x="1168" 
d="M456 905q32 13 47 -5.5t28.5 -18.5t125 39t279.5 50q51 -8 160 -12t57.5 -45t-125.5 -55.5t-169 -32.5q-339 -83 -419 -201q-129 -254 -129 -380.5t-2 -156.5t-76.5 -68.5t-82 -23.5t-56.5 28t-69 46t-20 57t112.5 198.5t112.5 200.5t40.5 143t48.5 128.5t137 108.5z" />
    <glyph glyph-name="s" unicode="s" horiz-adv-x="956" 
d="M957 1181h13q43 0 60 -29t8 -89.5t-229 -138.5q-382 -130 -398 -174q0 -12 45 -19q200 -39 274.5 -76.5t93 -62t2.5 -76t-261 -254.5q-175 -154 -315 -231q-197 -143 -257 -212q-59 -60 -70 -59.5t-22 7.5t-7.5 22t132 151t404.5 361q52 25 174 147l6 20q0 35 -128 51
l-212 -13q-122 0 -122 97q0 221 443 379q283 96 283 142t83 57z" />
    <glyph glyph-name="t" unicode="t" horiz-adv-x="973" 
d="M938 1790q31 -12 31 -52l3 -30q0 -28 -43 -102q-17 -15 -48 -61l-41 -52q-113 -195 -161 -266q-46 -84 -80 -127q-56 -102 -79 -132q0 -9 -9 -9q0 -10 -18 -32l-5 -20h2l3 -2q20 0 84 27t120 52q133 50 282 103.5t175.5 53.5t24 -46t-190.5 -124q-163 -72 -298 -141
q-129 -61 -153.5 -75.5t-74 -41.5t-72 -41.5t-59.5 -34.5l-20 -16q-18 -24 -44.5 -91.5t-36 -93.5t-19.5 -50t-26.5 -116t3.5 -103q21 0 91 64q92 97 159 118q64 -5 53 -32t-49 -77t-55.5 -76t-87.5 -86t-121.5 -75.5t-68 10t-15 84t9.5 163.5q19 91 34 139l39 115l18 46
l21 50l2 11v2q-49 -9 -117.5 -11t-84.5 16t-11 30t17.5 28.5t77.5 34.5l134 54q87 41 107 74q56 106 102 174l38 59q29 51 59 88l30 48q9 23 43 70l36 59l37 55l122 197l46 84l61 96z" />
    <glyph glyph-name="u" unicode="u" horiz-adv-x="1080" 
d="M423 885q13 0 30 -8.5t17 -21.5t17 -81.5t-31 -68.5t-161.5 -150t13 -285t282 0t254 292.5t132.5 184.5t51.5 27h29t17 -43t-64 -136t-119.5 -191.5t-21.5 -142.5t94.5 -17t84.5 20.5t45.5 -14t-113.5 -85t-183.5 -52.5t-96.5 12.5t-151.5 -58.5t-220.5 -64t-199.5 -3
t-81.5 103t17 190.5t97 231.5t75.5 146t87 115.5t100 98.5z" />
    <glyph glyph-name="v" unicode="v" horiz-adv-x="664" 
d="M742 981l-23 -54q-245 -410 -400 -678q-13 -9 -62 -100.5t-81.5 -121.5t-50.5 -30t-53 18t-39.5 68t-5 165.5t22 280t47.5 304.5q27 40 41.5 40t44.5 -23.5t30 -118t-15 -152.5t-30 -176.5t-12.5 -118.5t31 36t217.5 362l75 121q98 174 232 348q0 22 45 55h20
q95 -22 -34 -225z" />
    <glyph glyph-name="w" unicode="w" horiz-adv-x="708" 
d="M855 1423q19 0 23.5 -12t-2.5 -27.5t-7.5 -29.5t-103.5 -340t-198.5 -586.5t-135.5 -334.5t-53.5 -72t-21 -1.5t-11.5 -3t-19.5 2t-19 42.5t-8 41.5t1 133.5t-27 74.5t-91 -168t-72 -133.5t-43 -25.5t-43 0t-18.5 34.5t-11 50.5t-1.5 94t3 76.5t19 222.5t1.5 29t3 40
t48.5 247t32 13t40.5 -12.5t32.5 -34t3 -23t-4.5 -99t-12 -104.5t-1 -10t-5 -32t13 -58.5t93.5 122t88.5 187t24 49t29 25.5t34 -4t11 -45t-18.5 -142t-6 -113.5t20.5 5t155 379t161.5 433t48 85t48.5 25z" />
    <glyph glyph-name="x" unicode="x" horiz-adv-x="923" 
d="M859.5 1122.5q2.5 -0.5 6.5 -7.5t5.5 -7t12 3.5t21.5 2t17.5 -9.5t4.5 -19t-3 -15.5t-1.5 -7t-7.5 -2.5t-22.5 -7.5t-17 -16t-21 -36.5t-20.5 -27.5t-0.5 -0.5t0.5 -3t-7 -10t-7.5 -11.5t-7 -10.5t-16 -24.5t-12.5 -20t-8 -12.5t-7 -10t-9.5 -14t-15.5 -22.5t-7.5 -11.5
t-7 -9.5t-16.5 -20.5t-32.5 -43t-28.5 -44.5t-10.5 -27.5t-8.5 -11.5t-2 -0.5t0.5 -2.5t-3.5 -4t-2.5 -3.5t0.5 -2t-22 -31.5t-25 -26.5t-4 -3t-11.5 -24.5t-9 -19.5t-0.5 -3.5t-4 -11.5t-9.5 -22.5t-23.5 -25.5t-17.5 -21.5t0 -11t1 -5.5t-5 -6.5t3 -6.5t7 -6.5t0 -4t3.5 1
t5.5 1t8 -3.5t4.5 -8l-1.5 -7.5t13.5 -22t15 -20.5t0.5 -2t-1.5 -1.5t-2 -0.5t-7.5 5.5t-7.5 5.5t1 -4.5t8.5 -11t32 -38.5t25 -35t5 -6.5t18.5 -22t14.5 -19t2.5 -1.5t1 -1.5t-5.5 -1.5t39.5 -59t54 -67.5t13 -18.5t3 -10t-1.5 -1t-6 9.5t-22 23.5t-25.5 26t-22 23.5
t-13 11t3 -3.5t7 -9.5t21 -26.5t51 -61.5t34 -43.5t5.5 -6.5t27.5 -32t21.5 -29t3.5 -4t6 -7t12.5 -15.5t10.5 -13t5.5 -6.5t10 -11.5t3.5 -7.5t-2 -0.5t-21 23.5t-26 28.5t-5.5 8t-4 4.5t-16 17t-14.5 16t-4.5 5t-13.5 15.5t-13 15t-47 57t-54 60t-28 32.5t-32 46t-16 22.5
t-5.5 2t-1 -1t0 -2.5t-0.5 -3t-4 -2t-6 -0.5t-8.5 9.5t-9 9.5t-6.5 7t-32.5 34t-43.5 40t-25 4.5t-17 -11t-6.5 -3.5t-1 -8t1.5 -7.5t2.5 -2t-0.5 -2.5t-9.5 -9t-15 -16.5t-7 -8t-9 -11t-13.5 -16t-7 -10t-13 -21t-14 -15t-2 -0.5t3 -6t0.5 -7.5t-2 -5t-1.5 -2t-10.5 -14.5
t-28 -43t-21.5 -37.5t-10 -24.5t-17 -27.5t-8.5 -15t-1.5 -2t-6.5 -11t-5.5 -12t-1.5 -0.5t0 -1t0 -2.5t-3 -3.5t-11.5 -20t-11.5 -18.5t-12 -21.5t-12 -20.5t-15 -26t-18 -32.5t-13.5 -24t-9 -18.5t-1.5 -3t-2 -2.5t-0.5 -1t0 -4.5t-4 -5.5t-2.5 -3t0.5 -3t-9 -20
t-10 -17.5t-8.5 -17.5t-16 -32t-11.5 -15.5t-5.5 -9t-7 -16t-8 -10.5t-3 -3t0.5 -2t-6 -7.5t-6.5 -5t0 4t5.5 10.5t6.5 16.5t12.5 28t10.5 20.5t-0.5 2t2.5 8t7 13.5t6 14.5t9 20.5t18.5 41t18.5 40t6.5 13t1.5 8.5t7 11.5t4 7t1.5 6t3 3t0.5 1t0 5t4 5.5t2.5 3t-0.5 2t5 11
t8 13.5t22.5 44.5t21.5 43.5t10 19t9 16.5t7 14.5t11.5 22.5t5.5 9t-0.5 2t3.5 6t2.5 6t-0.5 1.5t6.5 9t5.5 11t2.5 4t2 2.5t-0.5 3t4 4t2.5 3t0 4.5t13.5 24.5t17.5 34.5t24 48t20.5 38t3.5 3.5t6 12t5 12.5t6.5 7t5 9.5t7 13.5t15 25.5t8.5 16t1.5 2.5t-27 46.5t-36.5 51
t-8 10.5t-6.5 10.5t-10 11.5t-11 14.5t-8 12t-7 10t-34 43t-53 74t-46.5 66.5t-21.5 29t-15 17t-21 26.5t-13.5 14t-10 17.5t-3.5 16t4 8t8 7t5.5 2t19.5 5.5t47.5 -10.5t51 -34t24.5 -19t11.5 -2t12 -0.5t4 1t3 -2t4.5 -1t13.5 -0.5t13.5 -0.5t16.5 -1t15.5 -4t-15.5 -7.5
t-17.5 -4.5t-10 -1t-9.5 -3t1 -3.5t0.5 -6.5t-9 -2.5t-8 0.5t15 -12.5t17.5 -10t6.5 1t9 -8.5t5 -9t-1 -3t-13.5 -2.5t-13.5 -2t9.5 -5t10 -5.5t1 -1t8 0t9 -7t2 -7t-2.5 -3.5t-0.5 -5t7 -1t6 1.5t1.5 -1t1.5 -0.5t2.5 0.5t5 -5.5t2 -14t16 -30.5t25.5 -46t36.5 -67.5
t30 -43.5t2 1t0 1.5t-0.5 1.5t7 14.5t8.5 13t3.5 5.5t3 6t0.5 1t0 4.5t3.5 5.5t2.5 3.5t0 3t3.5 4t2 3.5t-0.5 2.5t3.5 4t2.5 3.5t0 5.5t4.5 9t11 20.5t8.5 16t4.5 7.5t26 50t27.5 48.5t17 15.5t38 55t34.5 62t12 19t3 5.5t9 15.5t11.5 19t4 6t8.5 12t8.5 12.5t6.5 11t7 11
t12 18t12.5 17.5t16 21t15 21t6.5 6t4 7.5t5 10t8 9t7 8t7.5 7.5t6.5 2.5t8 2.5t10.5 3t9 3z" />
    <glyph glyph-name="y" unicode="y" horiz-adv-x="1117" 
d="M343 806q35 0 75 -116v-49q0 -50 -139 -124q-74 -79 -74 -124q6 -50 88.5 -50t242.5 118t279 271q324 306 357 314t49.5 0t18.5 -16.5t2 -90t-118 -249.5q-72 -159 -125 -239l-74 -149q-77 -99 -559 -971l-147 -223q0 -37 -37 -58l-14 17v16q88 128 88 163t13.5 48.5
t486.5 908.5q15 49 31.5 60.5t115.5 253.5q67 190 67 194t-15 8.5t-51.5 -37t-69.5 -74.5t-158 -165q-339 -302 -566 -356q-111 0 -111 149q-7 49 15 165q0 116 147 260.5t182 144.5z" />
    <glyph glyph-name="z" unicode="z" horiz-adv-x="1010" 
d="M1160 1140h28q56 -10 56 -48q0 -99 -100 -164q-49 -57 -104 -72l-112 -68q-139 -59 -312 -192q-220 -140 -384 -324l-32 -40q0 -40 52 -40h8q90 24 200 40h20q112 0 112 -136q0 -60 -40 -120q-68 -159 -98 -209t-95 -167t-111 -180l-52 -100l-64 -120l-24 -16l-8 8l24 64
v4l4 -4h4l148 292q64 116 156 320q36 69 27.5 98.5t-11.5 65.5q-17 40 -52 40h-16q-59 0 -220 -60l-88 -12q-80 20 -80 48q-12 0 -12 44q0 61 60 132q226 186 284 252v8q-26 19 -52.5 21.5t-103.5 -9.5h-16q-124 42 -124 128q0 96 76 136q150 76 284 120q140 64 380 148
q46 29 147 63t241 49z" />
    </font>
</defs>
</svg>
